<svg xmlns="http://www.w3.org/2000/svg" width="900" height="900" viewBox="0 0 900 900" fill="none"><g fill="#6f4e33" stroke="#6f4e33" stroke-width="0.8" stroke-linecap="round"><path d="M594.1 240.2h11.0M599.6 234.7v11.0" opacity="0.038"/><circle cx="629.4" cy="240.6" r="0.9" stroke="none" opacity="0.030"/><circle cx="659.7" cy="240.4" r="0.9" stroke="none" opacity="0.031"/><circle cx="690.1" cy="239.9" r="0.9" stroke="none" opacity="0.032"/><path d="M714.8 239.5h11.0M720.3 234.0v11.0" opacity="0.045"/><circle cx="749.6" cy="240.5" r="0.9" stroke="none" opacity="0.034"/><circle cx="779.8" cy="239.6" r="0.9" stroke="none" opacity="0.034"/><circle cx="810.0" cy="240.5" r="0.9" stroke="none" opacity="0.035"/><path d="M834.8 240.4h11.0M840.3 234.9v11.0" opacity="0.048"/><circle cx="870.4" cy="240.3" r="0.9" stroke="none" opacity="0.035"/><circle cx="899.6" cy="240.6" r="0.9" stroke="none" opacity="0.036"/><circle cx="540.1" cy="269.4" r="0.9" stroke="none" opacity="0.033"/><circle cx="569.9" cy="270.2" r="0.9" stroke="none" opacity="0.036"/><circle cx="600.4" cy="269.7" r="0.9" stroke="none" opacity="0.038"/><circle cx="629.7" cy="270.5" r="0.9" stroke="none" opacity="0.040"/><circle cx="659.5" cy="269.6" r="0.9" stroke="none" opacity="0.042"/><circle cx="689.9" cy="270.5" r="0.9" stroke="none" opacity="0.044"/><circle cx="720.4" cy="269.4" r="0.9" stroke="none" opacity="0.044"/><circle cx="750.5" cy="270.1" r="0.9" stroke="none" opacity="0.045"/><circle cx="780.1" cy="270.3" r="0.9" stroke="none" opacity="0.046"/><circle cx="809.9" cy="270.1" r="0.9" stroke="none" opacity="0.046"/><circle cx="840.2" cy="270.3" r="0.9" stroke="none" opacity="0.047"/><circle cx="870.0" cy="269.5" r="0.9" stroke="none" opacity="0.047"/><circle cx="899.7" cy="269.7" r="0.9" stroke="none" opacity="0.047"/><circle cx="449.8" cy="300.2" r="0.9" stroke="none" opacity="0.031"/><circle cx="480.4" cy="299.8" r="0.9" stroke="none" opacity="0.035"/><circle cx="510.2" cy="300.1" r="0.9" stroke="none" opacity="0.039"/><circle cx="540.3" cy="300.0" r="0.9" stroke="none" opacity="0.043"/><circle cx="570.1" cy="300.4" r="0.9" stroke="none" opacity="0.046"/><circle cx="599.9" cy="299.8" r="0.9" stroke="none" opacity="0.049"/><circle cx="630.0" cy="299.7" r="0.9" stroke="none" opacity="0.051"/><circle cx="660.0" cy="300.2" r="0.9" stroke="none" opacity="0.054"/><circle cx="690.3" cy="300.6" r="0.9" stroke="none" opacity="0.056"/><circle cx="719.8" cy="299.6" r="0.9" stroke="none" opacity="0.057"/><circle cx="750.0" cy="300.5" r="0.9" stroke="none" opacity="0.058"/><circle cx="779.9" cy="300.3" r="0.9" stroke="none" opacity="0.059"/><circle cx="810.2" cy="300.3" r="0.9" stroke="none" opacity="0.059"/><circle cx="840.2" cy="300.5" r="0.9" stroke="none" opacity="0.060"/><circle cx="870.5" cy="300.5" r="0.9" stroke="none" opacity="0.060"/><circle cx="900.2" cy="299.7" r="0.9" stroke="none" opacity="0.060"/><circle cx="419.6" cy="330.4" r="0.9" stroke="none" opacity="0.034"/><circle cx="450.1" cy="329.7" r="0.9" stroke="none" opacity="0.039"/><circle cx="479.7" cy="329.5" r="0.9" stroke="none" opacity="0.044"/><circle cx="510.5" cy="329.9" r="0.9" stroke="none" opacity="0.049"/><circle cx="540.2" cy="330.4" r="0.9" stroke="none" opacity="0.053"/><circle cx="570.5" cy="330.1" r="0.9" stroke="none" opacity="0.057"/><circle cx="599.9" cy="329.6" r="0.9" stroke="none" opacity="0.061"/><circle cx="629.6" cy="330.0" r="0.9" stroke="none" opacity="0.064"/><circle cx="659.9" cy="330.3" r="0.9" stroke="none" opacity="0.066"/><circle cx="689.9" cy="329.6" r="0.9" stroke="none" opacity="0.068"/><circle cx="720.3" cy="330.0" r="0.9" stroke="none" opacity="0.070"/><circle cx="750.5" cy="329.6" r="0.9" stroke="none" opacity="0.071"/><circle cx="779.6" cy="330.3" r="0.9" stroke="none" opacity="0.072"/><circle cx="810.3" cy="329.8" r="0.9" stroke="none" opacity="0.073"/><circle cx="839.9" cy="329.7" r="0.9" stroke="none" opacity="0.073"/><circle cx="870.1" cy="329.6" r="0.9" stroke="none" opacity="0.073"/><circle cx="900.5" cy="330.3" r="0.9" stroke="none" opacity="0.074"/><path d="M355.0 359.5h11.0M360.5 354.0v11.0" opacity="0.040"/><circle cx="390.3" cy="359.9" r="0.9" stroke="none" opacity="0.035"/><circle cx="419.5" cy="360.2" r="0.9" stroke="none" opacity="0.042"/><circle cx="450.2" cy="360.2" r="0.9" stroke="none" opacity="0.048"/><path d="M474.2 360.1h11.0M479.7 354.6v11.0" opacity="0.073"/><circle cx="509.5" cy="359.7" r="0.9" stroke="none" opacity="0.059"/><circle cx="540.5" cy="360.1" r="0.9" stroke="none" opacity="0.064"/><circle cx="569.4" cy="360.2" r="0.9" stroke="none" opacity="0.069"/><path d="M594.9 359.6h11.0M600.4 354.1v11.0" opacity="0.099"/><circle cx="630.0" cy="360.4" r="0.9" stroke="none" opacity="0.077"/><circle cx="659.9" cy="359.5" r="0.9" stroke="none" opacity="0.079"/><circle cx="690.1" cy="359.9" r="0.9" stroke="none" opacity="0.082"/><path d="M714.3 360.3h11.0M719.8 354.8v11.0" opacity="0.115"/><circle cx="750.4" cy="359.5" r="0.9" stroke="none" opacity="0.085"/><circle cx="779.4" cy="360.1" r="0.9" stroke="none" opacity="0.086"/><circle cx="809.9" cy="360.4" r="0.9" stroke="none" opacity="0.087"/><path d="M834.8 360.0h11.0M840.3 354.5v11.0" opacity="0.120"/><circle cx="869.9" cy="360.2" r="0.9" stroke="none" opacity="0.088"/><circle cx="899.6" cy="360.5" r="0.9" stroke="none" opacity="0.088"/><circle cx="360.4" cy="389.9" r="0.9" stroke="none" opacity="0.035"/><circle cx="389.4" cy="389.9" r="0.9" stroke="none" opacity="0.042"/><circle cx="419.5" cy="389.6" r="0.9" stroke="none" opacity="0.049"/><circle cx="450.4" cy="389.9" r="0.9" stroke="none" opacity="0.057"/><circle cx="480.1" cy="390.2" r="0.9" stroke="none" opacity="0.064"/><circle cx="510.0" cy="390.5" r="0.9" stroke="none" opacity="0.070"/><circle cx="539.4" cy="389.8" r="0.9" stroke="none" opacity="0.076"/><circle cx="570.1" cy="389.6" r="0.9" stroke="none" opacity="0.081"/><circle cx="599.4" cy="389.7" r="0.9" stroke="none" opacity="0.086"/><circle cx="630.1" cy="390.5" r="0.9" stroke="none" opacity="0.090"/><circle cx="659.8" cy="390.2" r="0.9" stroke="none" opacity="0.094"/><circle cx="690.0" cy="390.4" r="0.9" stroke="none" opacity="0.097"/><circle cx="720.1" cy="389.5" r="0.9" stroke="none" opacity="0.098"/><circle cx="750.0" cy="390.6" r="0.9" stroke="none" opacity="0.101"/><circle cx="780.6" cy="390.0" r="0.9" stroke="none" opacity="0.102"/><circle cx="810.5" cy="390.6" r="0.9" stroke="none" opacity="0.103"/><circle cx="839.9" cy="389.5" r="0.9" stroke="none" opacity="0.103"/><circle cx="869.9" cy="389.5" r="0.9" stroke="none" opacity="0.103"/><circle cx="900.2" cy="390.3" r="0.9" stroke="none" opacity="0.104"/><circle cx="329.4" cy="419.4" r="0.9" stroke="none" opacity="0.034"/><circle cx="360.2" cy="420.1" r="0.9" stroke="none" opacity="0.042"/><circle cx="390.6" cy="420.6" r="0.9" stroke="none" opacity="0.050"/><circle cx="420.6" cy="420.4" r="0.9" stroke="none" opacity="0.058"/><circle cx="450.6" cy="419.9" r="0.9" stroke="none" opacity="0.066"/><circle cx="479.5" cy="420.1" r="0.9" stroke="none" opacity="0.073"/><circle cx="509.4" cy="419.5" r="0.9" stroke="none" opacity="0.080"/><circle cx="540.1" cy="419.8" r="0.9" stroke="none" opacity="0.087"/><circle cx="569.6" cy="419.8" r="0.9" stroke="none" opacity="0.093"/><circle cx="600.3" cy="420.4" r="0.9" stroke="none" opacity="0.099"/><circle cx="629.6" cy="420.5" r="0.9" stroke="none" opacity="0.104"/><circle cx="659.9" cy="419.6" r="0.9" stroke="none" opacity="0.108"/><circle cx="689.7" cy="420.5" r="0.9" stroke="none" opacity="0.112"/><circle cx="719.4" cy="420.1" r="0.9" stroke="none" opacity="0.114"/><circle cx="749.7" cy="419.5" r="0.9" stroke="none" opacity="0.116"/><circle cx="780.1" cy="419.5" r="0.9" stroke="none" opacity="0.118"/><circle cx="810.0" cy="419.4" r="0.9" stroke="none" opacity="0.119"/><circle cx="839.8" cy="420.2" r="0.9" stroke="none" opacity="0.120"/><circle cx="870.5" cy="420.1" r="0.9" stroke="none" opacity="0.120"/><circle cx="899.5" cy="419.5" r="0.9" stroke="none" opacity="0.120"/><circle cx="300.5" cy="450.0" r="0.9" stroke="none" opacity="0.031"/><circle cx="329.9" cy="449.6" r="0.9" stroke="none" opacity="0.039"/><circle cx="360.1" cy="449.5" r="0.9" stroke="none" opacity="0.048"/><circle cx="390.1" cy="449.6" r="0.9" stroke="none" opacity="0.057"/><circle cx="420.0" cy="449.5" r="0.9" stroke="none" opacity="0.066"/><circle cx="449.7" cy="450.4" r="0.9" stroke="none" opacity="0.075"/><circle cx="479.4" cy="450.3" r="0.9" stroke="none" opacity="0.083"/><circle cx="509.5" cy="449.4" r="0.9" stroke="none" opacity="0.091"/><circle cx="539.6" cy="450.5" r="0.9" stroke="none" opacity="0.099"/><circle cx="570.3" cy="450.0" r="0.9" stroke="none" opacity="0.106"/><circle cx="600.4" cy="450.1" r="0.9" stroke="none" opacity="0.113"/><circle cx="629.6" cy="450.4" r="0.9" stroke="none" opacity="0.118"/><circle cx="660.1" cy="450.0" r="0.9" stroke="none" opacity="0.123"/><circle cx="690.0" cy="450.1" r="0.9" stroke="none" opacity="0.127"/><circle cx="719.8" cy="449.7" r="0.9" stroke="none" opacity="0.130"/><circle cx="750.4" cy="449.9" r="0.9" stroke="none" opacity="0.133"/><circle cx="779.6" cy="450.6" r="0.9" stroke="none" opacity="0.135"/><circle cx="809.7" cy="450.5" r="0.9" stroke="none" opacity="0.136"/><circle cx="839.8" cy="450.1" r="0.9" stroke="none" opacity="0.137"/><circle cx="870.5" cy="449.5" r="0.9" stroke="none" opacity="0.137"/><circle cx="900.2" cy="450.2" r="0.9" stroke="none" opacity="0.138"/><circle cx="299.8" cy="480.5" r="0.9" stroke="none" opacity="0.035"/><circle cx="330.0" cy="479.4" r="0.9" stroke="none" opacity="0.044"/><path d="M354.5 479.8h11.0M360.0 474.3v11.0" opacity="0.073"/><circle cx="389.7" cy="480.4" r="0.9" stroke="none" opacity="0.063"/><circle cx="419.7" cy="480.3" r="0.9" stroke="none" opacity="0.073"/><circle cx="449.7" cy="479.7" r="0.9" stroke="none" opacity="0.083"/><path d="M474.4 479.7h11.0M479.9 474.2v11.0" opacity="0.126"/><circle cx="510.0" cy="479.6" r="0.9" stroke="none" opacity="0.102"/><circle cx="540.2" cy="480.5" r="0.9" stroke="none" opacity="0.111"/><circle cx="570.3" cy="480.2" r="0.9" stroke="none" opacity="0.119"/><path d="M594.1 480.0h11.0M599.6 474.5v11.0" opacity="0.172"/><circle cx="630.0" cy="480.5" r="0.9" stroke="none" opacity="0.133"/><circle cx="660.3" cy="480.3" r="0.9" stroke="none" opacity="0.139"/><circle cx="690.2" cy="479.6" r="0.9" stroke="none" opacity="0.143"/><path d="M715.0 479.7h11.0M720.5 474.2v11.0" opacity="0.200"/><circle cx="749.4" cy="479.8" r="0.9" stroke="none" opacity="0.150"/><circle cx="779.5" cy="480.5" r="0.9" stroke="none" opacity="0.153"/><circle cx="810.4" cy="480.4" r="0.9" stroke="none" opacity="0.154"/><path d="M834.2 479.7h11.0M839.7 474.2v11.0" opacity="0.211"/><circle cx="870.1" cy="480.4" r="0.9" stroke="none" opacity="0.156"/><circle cx="900.5" cy="480.2" r="0.9" stroke="none" opacity="0.156"/><circle cx="300.2" cy="509.5" r="0.9" stroke="none" opacity="0.039"/><circle cx="330.0" cy="510.6" r="0.9" stroke="none" opacity="0.049"/><circle cx="360.2" cy="510.4" r="0.9" stroke="none" opacity="0.059"/><circle cx="389.8" cy="509.4" r="0.9" stroke="none" opacity="0.070"/><circle cx="419.9" cy="510.4" r="0.9" stroke="none" opacity="0.081"/><circle cx="450.5" cy="510.3" r="0.9" stroke="none" opacity="0.092"/><circle cx="480.2" cy="510.0" r="0.9" stroke="none" opacity="0.102"/><circle cx="509.8" cy="510.5" r="0.9" stroke="none" opacity="0.113"/><circle cx="540.0" cy="509.4" r="0.9" stroke="none" opacity="0.122"/><circle cx="570.4" cy="510.3" r="0.9" stroke="none" opacity="0.132"/><circle cx="599.5" cy="510.2" r="0.9" stroke="none" opacity="0.140"/><circle cx="630.3" cy="510.2" r="0.9" stroke="none" opacity="0.148"/><circle cx="660.5" cy="509.6" r="0.9" stroke="none" opacity="0.154"/><circle cx="690.2" cy="510.4" r="0.9" stroke="none" opacity="0.160"/><circle cx="720.1" cy="510.2" r="0.9" stroke="none" opacity="0.164"/><circle cx="749.5" cy="509.4" r="0.9" stroke="none" opacity="0.167"/><circle cx="780.4" cy="509.6" r="0.9" stroke="none" opacity="0.170"/><circle cx="809.6" cy="509.9" r="0.9" stroke="none" opacity="0.172"/><circle cx="840.0" cy="509.5" r="0.9" stroke="none" opacity="0.173"/><circle cx="870.4" cy="510.4" r="0.9" stroke="none" opacity="0.175"/><circle cx="899.5" cy="510.0" r="0.9" stroke="none" opacity="0.175"/><circle cx="269.7" cy="540.1" r="0.9" stroke="none" opacity="0.033"/><circle cx="300.2" cy="539.8" r="0.9" stroke="none" opacity="0.043"/><circle cx="330.3" cy="539.9" r="0.9" stroke="none" opacity="0.053"/><circle cx="360.3" cy="540.5" r="0.9" stroke="none" opacity="0.065"/><circle cx="390.0" cy="540.6" r="0.9" stroke="none" opacity="0.076"/><circle cx="419.8" cy="539.7" r="0.9" stroke="none" opacity="0.087"/><circle cx="450.6" cy="540.4" r="0.9" stroke="none" opacity="0.099"/><circle cx="480.1" cy="539.6" r="0.9" stroke="none" opacity="0.111"/><circle cx="510.2" cy="540.5" r="0.9" stroke="none" opacity="0.123"/><circle cx="539.5" cy="539.6" r="0.9" stroke="none" opacity="0.133"/><circle cx="570.1" cy="540.5" r="0.9" stroke="none" opacity="0.144"/><circle cx="600.3" cy="540.0" r="0.9" stroke="none" opacity="0.154"/><circle cx="629.9" cy="539.7" r="0.9" stroke="none" opacity="0.162"/><circle cx="660.0" cy="540.1" r="0.9" stroke="none" opacity="0.170"/><circle cx="690.4" cy="540.0" r="0.9" stroke="none" opacity="0.177"/><circle cx="720.3" cy="540.1" r="0.9" stroke="none" opacity="0.182"/><circle cx="749.9" cy="540.1" r="0.9" stroke="none" opacity="0.186"/><circle cx="780.4" cy="539.4" r="0.9" stroke="none" opacity="0.189"/><circle cx="810.0" cy="539.9" r="0.9" stroke="none" opacity="0.192"/><circle cx="840.2" cy="539.9" r="0.9" stroke="none" opacity="0.193"/><circle cx="870.1" cy="540.3" r="0.9" stroke="none" opacity="0.194"/><circle cx="900.2" cy="539.6" r="0.9" stroke="none" opacity="0.194"/><circle cx="269.8" cy="570.1" r="0.9" stroke="none" opacity="0.036"/><circle cx="300.4" cy="570.1" r="0.9" stroke="none" opacity="0.046"/><circle cx="330.4" cy="570.3" r="0.9" stroke="none" opacity="0.057"/><circle cx="360.2" cy="570.3" r="0.9" stroke="none" opacity="0.069"/><circle cx="390.5" cy="570.5" r="0.9" stroke="none" opacity="0.081"/><circle cx="420.6" cy="570.3" r="0.9" stroke="none" opacity="0.094"/><circle cx="450.2" cy="570.2" r="0.9" stroke="none" opacity="0.106"/><circle cx="479.6" cy="569.9" r="0.9" stroke="none" opacity="0.119"/><circle cx="509.9" cy="570.4" r="0.9" stroke="none" opacity="0.132"/><circle cx="540.1" cy="569.5" r="0.9" stroke="none" opacity="0.144"/><circle cx="569.8" cy="570.0" r="0.9" stroke="none" opacity="0.155"/><circle cx="599.9" cy="569.8" r="0.9" stroke="none" opacity="0.166"/><circle cx="629.4" cy="569.9" r="0.9" stroke="none" opacity="0.176"/><circle cx="659.8" cy="570.2" r="0.9" stroke="none" opacity="0.186"/><circle cx="690.4" cy="569.6" r="0.9" stroke="none" opacity="0.193"/><circle cx="719.8" cy="570.2" r="0.9" stroke="none" opacity="0.200"/><circle cx="750.3" cy="569.5" r="0.9" stroke="none" opacity="0.205"/><circle cx="780.0" cy="569.4" r="0.9" stroke="none" opacity="0.208"/><circle cx="810.2" cy="570.1" r="0.9" stroke="none" opacity="0.211"/><circle cx="840.5" cy="570.4" r="0.9" stroke="none" opacity="0.213"/><circle cx="870.5" cy="570.1" r="0.9" stroke="none" opacity="0.214"/><circle cx="900.5" cy="570.2" r="0.9" stroke="none" opacity="0.215"/><path d="M234.8 600.6h11.0M240.3 595.1v11.0" opacity="0.039"/><circle cx="269.5" cy="599.8" r="0.9" stroke="none" opacity="0.038"/><circle cx="300.1" cy="600.6" r="0.9" stroke="none" opacity="0.049"/><circle cx="329.7" cy="600.0" r="0.9" stroke="none" opacity="0.061"/><path d="M354.6 600.4h11.0M360.1 594.9v11.0" opacity="0.100"/><circle cx="389.7" cy="599.5" r="0.9" stroke="none" opacity="0.086"/><circle cx="419.8" cy="599.8" r="0.9" stroke="none" opacity="0.099"/><circle cx="450.0" cy="599.7" r="0.9" stroke="none" opacity="0.113"/><path d="M474.6 600.4h11.0M480.1 594.9v11.0" opacity="0.173"/><circle cx="509.7" cy="599.8" r="0.9" stroke="none" opacity="0.140"/><circle cx="540.1" cy="599.5" r="0.9" stroke="none" opacity="0.153"/><circle cx="569.9" cy="600.4" r="0.9" stroke="none" opacity="0.167"/><path d="M594.7 600.2h11.0M600.2 594.7v11.0" opacity="0.244"/><circle cx="630.0" cy="600.5" r="0.9" stroke="none" opacity="0.191"/><circle cx="659.9" cy="600.5" r="0.9" stroke="none" opacity="0.201"/><circle cx="690.3" cy="600.3" r="0.9" stroke="none" opacity="0.210"/><path d="M714.2 599.6h11.0M719.7 594.1v11.0" opacity="0.296"/><circle cx="749.4" cy="600.2" r="0.9" stroke="none" opacity="0.224"/><circle cx="779.9" cy="599.7" r="0.9" stroke="none" opacity="0.228"/><circle cx="810.5" cy="599.9" r="0.9" stroke="none" opacity="0.232"/><path d="M834.6 600.3h11.0M840.1 594.8v11.0" opacity="0.319"/><circle cx="869.9" cy="600.4" r="0.9" stroke="none" opacity="0.236"/><circle cx="900.4" cy="599.4" r="0.9" stroke="none" opacity="0.235"/><circle cx="240.6" cy="629.7" r="0.9" stroke="none" opacity="0.030"/><circle cx="269.8" cy="629.6" r="0.9" stroke="none" opacity="0.040"/><circle cx="299.6" cy="629.5" r="0.9" stroke="none" opacity="0.051"/><circle cx="329.7" cy="629.5" r="0.9" stroke="none" opacity="0.064"/><circle cx="360.4" cy="629.8" r="0.9" stroke="none" opacity="0.077"/><circle cx="389.7" cy="630.3" r="0.9" stroke="none" opacity="0.090"/><circle cx="420.6" cy="629.4" r="0.9" stroke="none" opacity="0.104"/><circle cx="450.6" cy="630.2" r="0.9" stroke="none" opacity="0.119"/><circle cx="480.3" cy="629.9" r="0.9" stroke="none" opacity="0.133"/><circle cx="509.8" cy="630.4" r="0.9" stroke="none" opacity="0.148"/><circle cx="540.5" cy="629.7" r="0.9" stroke="none" opacity="0.162"/><circle cx="570.1" cy="630.3" r="0.9" stroke="none" opacity="0.177"/><circle cx="600.3" cy="629.5" r="0.9" stroke="none" opacity="0.190"/><circle cx="629.4" cy="630.3" r="0.9" stroke="none" opacity="0.203"/><circle cx="659.9" cy="630.2" r="0.9" stroke="none" opacity="0.215"/><circle cx="689.7" cy="629.7" r="0.9" stroke="none" opacity="0.226"/><circle cx="719.6" cy="630.1" r="0.9" stroke="none" opacity="0.235"/><circle cx="749.9" cy="630.5" r="0.9" stroke="none" opacity="0.243"/><circle cx="780.5" cy="630.0" r="0.9" stroke="none" opacity="0.248"/><circle cx="809.8" cy="630.6" r="0.9" stroke="none" opacity="0.253"/><circle cx="839.6" cy="630.6" r="0.9" stroke="none" opacity="0.256"/><circle cx="870.4" cy="630.3" r="0.9" stroke="none" opacity="0.257"/><circle cx="900.6" cy="629.6" r="0.9" stroke="none" opacity="0.257"/><circle cx="239.9" cy="659.8" r="0.9" stroke="none" opacity="0.031"/><circle cx="269.7" cy="659.6" r="0.9" stroke="none" opacity="0.042"/><circle cx="299.5" cy="659.8" r="0.9" stroke="none" opacity="0.053"/><circle cx="329.7" cy="659.7" r="0.9" stroke="none" opacity="0.066"/><circle cx="360.4" cy="659.7" r="0.9" stroke="none" opacity="0.080"/><circle cx="389.7" cy="659.5" r="0.9" stroke="none" opacity="0.093"/><circle cx="420.5" cy="660.3" r="0.9" stroke="none" opacity="0.108"/><circle cx="450.1" cy="660.3" r="0.9" stroke="none" opacity="0.123"/><circle cx="479.8" cy="659.4" r="0.9" stroke="none" opacity="0.138"/><circle cx="510.2" cy="659.5" r="0.9" stroke="none" opacity="0.154"/><circle cx="540.1" cy="660.6" r="0.9" stroke="none" opacity="0.170"/><circle cx="570.5" cy="660.6" r="0.9" stroke="none" opacity="0.186"/><circle cx="599.6" cy="659.9" r="0.9" stroke="none" opacity="0.201"/><circle cx="629.5" cy="660.3" r="0.9" stroke="none" opacity="0.215"/><circle cx="660.3" cy="659.8" r="0.9" stroke="none" opacity="0.229"/><circle cx="690.4" cy="660.5" r="0.9" stroke="none" opacity="0.242"/><circle cx="720.3" cy="659.7" r="0.9" stroke="none" opacity="0.252"/><circle cx="750.6" cy="659.8" r="0.9" stroke="none" opacity="0.261"/><circle cx="779.9" cy="660.5" r="0.9" stroke="none" opacity="0.269"/><circle cx="810.6" cy="660.1" r="0.9" stroke="none" opacity="0.274"/><circle cx="839.4" cy="659.8" r="0.9" stroke="none" opacity="0.277"/><circle cx="869.6" cy="659.6" r="0.9" stroke="none" opacity="0.279"/><circle cx="900.1" cy="660.1" r="0.9" stroke="none" opacity="0.280"/><circle cx="239.4" cy="689.4" r="0.9" stroke="none" opacity="0.032"/><circle cx="269.7" cy="689.9" r="0.9" stroke="none" opacity="0.043"/><circle cx="300.2" cy="689.6" r="0.9" stroke="none" opacity="0.055"/><circle cx="329.8" cy="690.1" r="0.9" stroke="none" opacity="0.068"/><circle cx="359.5" cy="689.8" r="0.9" stroke="none" opacity="0.082"/><circle cx="390.3" cy="690.0" r="0.9" stroke="none" opacity="0.097"/><circle cx="420.4" cy="689.7" r="0.9" stroke="none" opacity="0.112"/><circle cx="449.4" cy="690.5" r="0.9" stroke="none" opacity="0.127"/><circle cx="480.3" cy="689.8" r="0.9" stroke="none" opacity="0.143"/><circle cx="509.5" cy="690.1" r="0.9" stroke="none" opacity="0.160"/><circle cx="540.1" cy="690.5" r="0.9" stroke="none" opacity="0.177"/><circle cx="570.2" cy="689.8" r="0.9" stroke="none" opacity="0.193"/><circle cx="599.8" cy="689.4" r="0.9" stroke="none" opacity="0.210"/><circle cx="630.1" cy="690.2" r="0.9" stroke="none" opacity="0.226"/><circle cx="660.2" cy="690.4" r="0.9" stroke="none" opacity="0.242"/><circle cx="689.4" cy="690.1" r="0.9" stroke="none" opacity="0.255"/><circle cx="720.1" cy="689.5" r="0.9" stroke="none" opacity="0.268"/><circle cx="750.1" cy="690.5" r="0.9" stroke="none" opacity="0.280"/><circle cx="780.5" cy="689.7" r="0.9" stroke="none" opacity="0.288"/><circle cx="809.9" cy="689.8" r="0.9" stroke="none" opacity="0.294"/><circle cx="839.6" cy="689.6" r="0.9" stroke="none" opacity="0.299"/><circle cx="870.1" cy="689.7" r="0.9" stroke="none" opacity="0.302"/><circle cx="899.6" cy="689.8" r="0.9" stroke="none" opacity="0.303"/><path d="M235.0 719.8h11.0M240.5 714.3v11.0" opacity="0.046"/><circle cx="269.5" cy="720.1" r="0.9" stroke="none" opacity="0.044"/><circle cx="300.4" cy="720.4" r="0.9" stroke="none" opacity="0.057"/><circle cx="330.4" cy="719.5" r="0.9" stroke="none" opacity="0.070"/><path d="M354.7 720.3h11.0M360.2 714.8v11.0" opacity="0.115"/><circle cx="389.9" cy="719.7" r="0.9" stroke="none" opacity="0.099"/><circle cx="419.6" cy="720.5" r="0.9" stroke="none" opacity="0.114"/><circle cx="449.4" cy="719.9" r="0.9" stroke="none" opacity="0.130"/><path d="M475.1 720.2h11.0M480.6 714.7v11.0" opacity="0.201"/><circle cx="510.1" cy="719.4" r="0.9" stroke="none" opacity="0.164"/><circle cx="540.1" cy="719.7" r="0.9" stroke="none" opacity="0.182"/><circle cx="569.6" cy="720.4" r="0.9" stroke="none" opacity="0.200"/><path d="M594.0 719.6h11.0M599.5 714.1v11.0" opacity="0.296"/><circle cx="630.3" cy="720.3" r="0.9" stroke="none" opacity="0.235"/><circle cx="660.6" cy="719.6" r="0.9" stroke="none" opacity="0.252"/><circle cx="690.0" cy="720.1" r="0.9" stroke="none" opacity="0.268"/><path d="M715.0 720.0h11.0M720.5 714.5v11.0" opacity="0.387"/><circle cx="750.3" cy="720.0" r="0.9" stroke="none" opacity="0.296"/><circle cx="780.2" cy="719.8" r="0.9" stroke="none" opacity="0.307"/><circle cx="809.5" cy="720.1" r="0.9" stroke="none" opacity="0.316"/><path d="M834.3 719.9h11.0M839.8 714.4v11.0" opacity="0.438"/><circle cx="870.0" cy="720.1" r="0.9" stroke="none" opacity="0.325"/><circle cx="900.0" cy="720.0" r="0.9" stroke="none" opacity="0.327"/><circle cx="239.4" cy="749.4" r="0.9" stroke="none" opacity="0.034"/><circle cx="270.6" cy="750.0" r="0.9" stroke="none" opacity="0.046"/><circle cx="300.0" cy="749.8" r="0.9" stroke="none" opacity="0.058"/><circle cx="330.1" cy="750.5" r="0.9" stroke="none" opacity="0.071"/><circle cx="360.2" cy="749.5" r="0.9" stroke="none" opacity="0.085"/><circle cx="389.9" cy="750.2" r="0.9" stroke="none" opacity="0.100"/><circle cx="419.9" cy="750.0" r="0.9" stroke="none" opacity="0.116"/><circle cx="450.5" cy="750.0" r="0.9" stroke="none" opacity="0.133"/><circle cx="479.8" cy="749.6" r="0.9" stroke="none" opacity="0.150"/><circle cx="510.5" cy="749.8" r="0.9" stroke="none" opacity="0.168"/><circle cx="539.8" cy="749.5" r="0.9" stroke="none" opacity="0.186"/><circle cx="569.9" cy="749.9" r="0.9" stroke="none" opacity="0.205"/><circle cx="600.2" cy="750.1" r="0.9" stroke="none" opacity="0.224"/><circle cx="630.1" cy="750.5" r="0.9" stroke="none" opacity="0.243"/><circle cx="659.5" cy="749.5" r="0.9" stroke="none" opacity="0.261"/><circle cx="689.5" cy="750.2" r="0.9" stroke="none" opacity="0.279"/><circle cx="720.1" cy="750.2" r="0.9" stroke="none" opacity="0.296"/><circle cx="749.7" cy="749.7" r="0.9" stroke="none" opacity="0.312"/><circle cx="780.2" cy="749.9" r="0.9" stroke="none" opacity="0.325"/><circle cx="810.5" cy="749.8" r="0.9" stroke="none" opacity="0.336"/><circle cx="839.6" cy="749.5" r="0.9" stroke="none" opacity="0.343"/><circle cx="869.6" cy="750.2" r="0.9" stroke="none" opacity="0.349"/><circle cx="900.1" cy="749.9" r="0.9" stroke="none" opacity="0.351"/><circle cx="239.8" cy="779.9" r="0.9" stroke="none" opacity="0.035"/><circle cx="269.5" cy="780.6" r="0.9" stroke="none" opacity="0.046"/><circle cx="300.1" cy="779.9" r="0.9" stroke="none" opacity="0.059"/><circle cx="329.5" cy="780.2" r="0.9" stroke="none" opacity="0.072"/><circle cx="359.5" cy="780.3" r="0.9" stroke="none" opacity="0.086"/><circle cx="390.6" cy="780.3" r="0.9" stroke="none" opacity="0.102"/><circle cx="419.9" cy="779.8" r="0.9" stroke="none" opacity="0.118"/><circle cx="450.2" cy="779.9" r="0.9" stroke="none" opacity="0.135"/><circle cx="479.9" cy="779.7" r="0.9" stroke="none" opacity="0.152"/><circle cx="510.6" cy="779.9" r="0.9" stroke="none" opacity="0.171"/><circle cx="539.6" cy="780.2" r="0.9" stroke="none" opacity="0.189"/><circle cx="570.0" cy="779.7" r="0.9" stroke="none" opacity="0.209"/><circle cx="599.8" cy="780.6" r="0.9" stroke="none" opacity="0.228"/><circle cx="629.7" cy="779.9" r="0.9" stroke="none" opacity="0.248"/><circle cx="660.5" cy="780.6" r="0.9" stroke="none" opacity="0.269"/><circle cx="690.3" cy="780.2" r="0.9" stroke="none" opacity="0.288"/><circle cx="719.9" cy="780.4" r="0.9" stroke="none" opacity="0.307"/><circle cx="750.3" cy="779.5" r="0.9" stroke="none" opacity="0.325"/><circle cx="780.4" cy="780.2" r="0.9" stroke="none" opacity="0.342"/><circle cx="809.7" cy="779.9" r="0.9" stroke="none" opacity="0.355"/><circle cx="840.3" cy="779.9" r="0.9" stroke="none" opacity="0.365"/><circle cx="870.0" cy="779.7" r="0.9" stroke="none" opacity="0.372"/><circle cx="899.8" cy="779.6" r="0.9" stroke="none" opacity="0.375"/><circle cx="239.9" cy="810.6" r="0.9" stroke="none" opacity="0.035"/><circle cx="269.5" cy="810.1" r="0.9" stroke="none" opacity="0.046"/><circle cx="300.2" cy="810.1" r="0.9" stroke="none" opacity="0.059"/><circle cx="329.9" cy="809.9" r="0.9" stroke="none" opacity="0.073"/><circle cx="360.1" cy="810.3" r="0.9" stroke="none" opacity="0.087"/><circle cx="390.3" cy="809.8" r="0.9" stroke="none" opacity="0.103"/><circle cx="419.5" cy="810.3" r="0.9" stroke="none" opacity="0.119"/><circle cx="450.0" cy="809.4" r="0.9" stroke="none" opacity="0.136"/><circle cx="479.8" cy="809.8" r="0.9" stroke="none" opacity="0.154"/><circle cx="510.3" cy="810.0" r="0.9" stroke="none" opacity="0.173"/><circle cx="539.9" cy="809.7" r="0.9" stroke="none" opacity="0.192"/><circle cx="569.7" cy="810.6" r="0.9" stroke="none" opacity="0.211"/><circle cx="600.4" cy="809.9" r="0.9" stroke="none" opacity="0.232"/><circle cx="629.8" cy="810.3" r="0.9" stroke="none" opacity="0.252"/><circle cx="660.2" cy="810.0" r="0.9" stroke="none" opacity="0.274"/><circle cx="689.6" cy="809.8" r="0.9" stroke="none" opacity="0.294"/><circle cx="719.6" cy="809.5" r="0.9" stroke="none" opacity="0.315"/><circle cx="750.1" cy="810.6" r="0.9" stroke="none" opacity="0.336"/><circle cx="780.2" cy="810.4" r="0.9" stroke="none" opacity="0.355"/><circle cx="809.4" cy="810.5" r="0.9" stroke="none" opacity="0.372"/><circle cx="840.4" cy="810.0" r="0.9" stroke="none" opacity="0.386"/><circle cx="869.8" cy="809.6" r="0.9" stroke="none" opacity="0.395"/><circle cx="899.8" cy="810.6" r="0.9" stroke="none" opacity="0.401"/><path d="M234.1 840.1h11.0M239.6 834.6v11.0" opacity="0.048"/><circle cx="270.1" cy="839.7" r="0.9" stroke="none" opacity="0.047"/><circle cx="300.2" cy="840.2" r="0.9" stroke="none" opacity="0.059"/><circle cx="330.2" cy="839.7" r="0.9" stroke="none" opacity="0.073"/><path d="M354.1 840.5h11.0M359.6 835.0v11.0" opacity="0.119"/><circle cx="390.4" cy="839.9" r="0.9" stroke="none" opacity="0.103"/><circle cx="420.5" cy="840.1" r="0.9" stroke="none" opacity="0.120"/><circle cx="450.2" cy="840.2" r="0.9" stroke="none" opacity="0.137"/><path d="M474.4 839.9h11.0M479.9 834.4v11.0" opacity="0.211"/><circle cx="510.0" cy="839.9" r="0.9" stroke="none" opacity="0.174"/><circle cx="539.5" cy="840.1" r="0.9" stroke="none" opacity="0.193"/><circle cx="570.0" cy="840.3" r="0.9" stroke="none" opacity="0.213"/><path d="M595.0 840.4h11.0M600.5 834.9v11.0" opacity="0.320"/><circle cx="630.5" cy="840.3" r="0.9" stroke="none" opacity="0.256"/><circle cx="660.5" cy="839.8" r="0.9" stroke="none" opacity="0.277"/><circle cx="690.2" cy="840.5" r="0.9" stroke="none" opacity="0.299"/><path d="M715.0 840.0h11.0M720.5 834.5v11.0" opacity="0.439"/><circle cx="750.2" cy="839.8" r="0.9" stroke="none" opacity="0.344"/><circle cx="780.2" cy="839.8" r="0.9" stroke="none" opacity="0.365"/><circle cx="809.6" cy="840.5" r="0.9" stroke="none" opacity="0.386"/><path d="M834.8 840.1h11.0M840.3 834.6v11.0" opacity="0.550"/><circle cx="869.8" cy="839.7" r="0.9" stroke="none" opacity="0.417"/><circle cx="900.4" cy="840.0" r="0.9" stroke="none" opacity="0.425"/><circle cx="239.7" cy="869.7" r="0.9" stroke="none" opacity="0.035"/><circle cx="269.4" cy="870.2" r="0.9" stroke="none" opacity="0.047"/><circle cx="299.4" cy="869.9" r="0.9" stroke="none" opacity="0.059"/><circle cx="329.9" cy="870.4" r="0.9" stroke="none" opacity="0.073"/><circle cx="360.4" cy="869.8" r="0.9" stroke="none" opacity="0.088"/><circle cx="390.4" cy="870.0" r="0.9" stroke="none" opacity="0.104"/><circle cx="420.5" cy="869.8" r="0.9" stroke="none" opacity="0.120"/><circle cx="450.5" cy="869.6" r="0.9" stroke="none" opacity="0.138"/><circle cx="480.6" cy="870.5" r="0.9" stroke="none" opacity="0.156"/><circle cx="509.8" cy="869.5" r="0.9" stroke="none" opacity="0.174"/><circle cx="540.0" cy="870.3" r="0.9" stroke="none" opacity="0.194"/><circle cx="570.6" cy="869.5" r="0.9" stroke="none" opacity="0.215"/><circle cx="600.2" cy="870.5" r="0.9" stroke="none" opacity="0.235"/><circle cx="630.5" cy="869.6" r="0.9" stroke="none" opacity="0.257"/><circle cx="659.5" cy="869.6" r="0.9" stroke="none" opacity="0.279"/><circle cx="690.0" cy="869.8" r="0.9" stroke="none" opacity="0.302"/><circle cx="719.6" cy="870.2" r="0.9" stroke="none" opacity="0.325"/><circle cx="749.7" cy="869.6" r="0.9" stroke="none" opacity="0.348"/><circle cx="780.5" cy="870.0" r="0.9" stroke="none" opacity="0.373"/><circle cx="810.3" cy="869.6" r="0.9" stroke="none" opacity="0.395"/><circle cx="839.7" cy="869.7" r="0.9" stroke="none" opacity="0.417"/><circle cx="869.8" cy="870.5" r="0.9" stroke="none" opacity="0.436"/><circle cx="900.0" cy="869.5" r="0.9" stroke="none" opacity="0.449"/><circle cx="239.8" cy="900.6" r="0.9" stroke="none" opacity="0.035"/><circle cx="270.6" cy="900.6" r="0.9" stroke="none" opacity="0.047"/><circle cx="300.6" cy="900.4" r="0.9" stroke="none" opacity="0.060"/><circle cx="329.7" cy="900.1" r="0.9" stroke="none" opacity="0.073"/><circle cx="360.2" cy="899.4" r="0.9" stroke="none" opacity="0.088"/><circle cx="390.2" cy="900.2" r="0.9" stroke="none" opacity="0.104"/><circle cx="420.5" cy="900.5" r="0.9" stroke="none" opacity="0.120"/><circle cx="450.2" cy="900.2" r="0.9" stroke="none" opacity="0.138"/><circle cx="480.2" cy="899.6" r="0.9" stroke="none" opacity="0.156"/><circle cx="509.6" cy="900.1" r="0.9" stroke="none" opacity="0.174"/><circle cx="540.4" cy="899.9" r="0.9" stroke="none" opacity="0.195"/><circle cx="569.4" cy="900.3" r="0.9" stroke="none" opacity="0.214"/><circle cx="599.7" cy="899.9" r="0.9" stroke="none" opacity="0.236"/><circle cx="629.5" cy="900.5" r="0.9" stroke="none" opacity="0.257"/><circle cx="659.8" cy="900.3" r="0.9" stroke="none" opacity="0.280"/><circle cx="690.0" cy="899.4" r="0.9" stroke="none" opacity="0.303"/><circle cx="720.3" cy="900.1" r="0.9" stroke="none" opacity="0.327"/><circle cx="750.0" cy="899.9" r="0.9" stroke="none" opacity="0.351"/><circle cx="779.8" cy="900.5" r="0.9" stroke="none" opacity="0.376"/><circle cx="810.6" cy="899.5" r="0.9" stroke="none" opacity="0.401"/><circle cx="839.8" cy="900.0" r="0.9" stroke="none" opacity="0.425"/><circle cx="869.8" cy="900.0" r="0.9" stroke="none" opacity="0.449"/><circle cx="900.1" cy="899.7" r="0.9" stroke="none" opacity="0.469"/></g></svg>