<svg xmlns="http://www.w3.org/2000/svg" viewBox="0 0 600 600" fill="none" stroke="#a86a40" stroke-width="0.9"><defs><radialGradient id="f" cx="100%" cy="0%" r="105%"><stop offset="0" stop-color="#fff"/><stop offset="0.42" stop-color="#bdbdbd"/><stop offset="0.72" stop-color="#3a3a3a"/><stop offset="1" stop-color="#000"/></radialGradient><mask id="m"><rect width="600" height="600" fill="url(#f)"/></mask></defs><g mask="url(#m)" opacity="0.55" stroke-opacity="0.28"><line x1="0" y1="0" x2="0" y2="600"/><line x1="72" y1="0" x2="72" y2="600"/><line x1="144" y1="0" x2="144" y2="600"/><line x1="216" y1="0" x2="216" y2="600"/><line x1="288" y1="0" x2="288" y2="600"/><line x1="360" y1="0" x2="360" y2="600"/><line x1="432" y1="0" x2="432" y2="600"/><line x1="504" y1="0" x2="504" y2="600"/><line x1="576" y1="0" x2="576" y2="600"/><line x1="0" y1="0" x2="600" y2="0"/><line x1="0" y1="72" x2="600" y2="72"/><line x1="0" y1="144" x2="600" y2="144"/><line x1="0" y1="216" x2="600" y2="216"/><line x1="0" y1="288" x2="600" y2="288"/><line x1="0" y1="360" x2="600" y2="360"/><line x1="0" y1="432" x2="600" y2="432"/><line x1="0" y1="504" x2="600" y2="504"/><line x1="0" y1="576" x2="600" y2="576"/></g></svg>
